<?xml version="1.0" encoding="utf-8"?>
<!-- Generator: Adobe Illustrator 19.1.0, SVG Export Plug-In . SVG Version: 6.00 Build 0)  -->
<svg version="1.1" id="Layer_1" xmlns="http://www.w3.org/2000/svg" xmlns:xlink="http://www.w3.org/1999/xlink" x="0px" y="0px"
	 viewBox="208 -478.2 1834.1 1805.6" style="enable-background:new 208 -478.2 1834.1 1805.6;" xml:space="preserve">
<style type="text/css">
	.st0{fill:#C28064;}
	.st1{fill:#DB4041;stroke:#F27178;stroke-miterlimit:10;}
	.st2{fill:none;stroke:#000333;stroke-width:19;stroke-miterlimit:10;}
</style>
<g id="Layer_2">
	<rect x="1183" y="-47.1" class="st0" width="204.1" height="102"/>
	<rect x="1477" y="307" class="st0" width="204.1" height="102"/>
	<rect x="1006.1" y="373.5" class="st0" width="204.1" height="102"/>
	<rect x="1006.1" y="553.6" class="st0" width="204.1" height="102"/>
	<rect x="1006.1" y="724.6" class="st0" width="204.1" height="102"/>
	<rect x="978.9" y="-47.1" class="st0" width="204.1" height="102"/>
	<rect x="1477" y="102.9" class="st0" width="102" height="204.1"/>
	<rect x="1579.1" y="102.9" class="st0" width="102" height="204.1"/>
	<rect x="1772.6" y="102.9" class="st0" width="102" height="204.1"/>
	<rect x="597.3" y="-98.1" class="st1" width="204.1" height="102"/>
	<rect x="824.3" y="-317.1" class="st1" width="102" height="204.1"/>
	<rect x="480.6" y="97.3" width="11.3" height="215.4"/>
	<rect x="1414.7" y="-363.4" width="215.4" height="11.3"/>
</g>
<g id="Layer_1_1_">
	<polygon class="st2" points="1004.4,-357.7 1001.5,-357.7 491.3,-357.7 491.3,370.8 1001.5,370.8 1001.5,1175.8 1874.6,1175.8 
		1874.6,-357.7 	"/>
</g>
</svg>
