<?xml version="1.0" encoding="iso-8859-1"?>
<!-- Generator: Adobe Illustrator 19.1.0, SVG Export Plug-In . SVG Version: 6.00 Build 0)  -->
<svg version="1.1" xmlns="http://www.w3.org/2000/svg" xmlns:xlink="http://www.w3.org/1999/xlink" x="0px" y="0px"
	 viewBox="0 0 1834.137 1805.639" style="enable-background:new 0 0 1834.137 1805.639;" xml:space="preserve">
<g id="Layer_1">
	<polygon style="fill:#FFFFFF;stroke:#000000;stroke-width:5;stroke-miterlimit:10;" points="796.371,120.544 793.536,120.544 
		283.3,120.544 283.3,849.048 793.536,849.048 793.536,1654.088 1666.607,1654.088 1666.607,120.544 	"/>
</g>
<g id="Layer_2">
	<rect x="974.954" y="431.194" style="fill:#AB8964;stroke:#000000;stroke-miterlimit:10;" width="204.094" height="102.047"/>
	<rect x="1269.02" y="785.269" style="fill:#AB8964;stroke:#000000;stroke-miterlimit:10;" width="204.094" height="102.047"/>
	<rect x="798.139" y="851.796" style="fill:#AB8964;stroke:#000000;stroke-miterlimit:10;" width="204.094" height="102.047"/>
	<rect x="798.139" y="1031.814" style="fill:#AB8964;stroke:#000000;stroke-miterlimit:10;" width="204.094" height="102.047"/>
	<rect x="798.139" y="1202.831" style="fill:#AB8964;stroke:#000000;stroke-miterlimit:10;" width="204.094" height="102.047"/>
	<rect x="770.859" y="431.194" style="fill:#AB8964;stroke:#000000;stroke-miterlimit:10;" width="204.094" height="102.047"/>
	<rect x="1269.02" y="581.174" style="fill:#AB8964;stroke:#000000;stroke-miterlimit:10;" width="102.047" height="204.094"/>
	<rect x="1371.067" y="581.174" style="fill:#AB8964;stroke:#000000;stroke-miterlimit:10;" width="102.047" height="204.094"/>
	<rect x="1564.56" y="581.174" style="fill:#AB8964;stroke:#000000;stroke-miterlimit:10;" width="102.047" height="204.094"/>
	<rect x="389.324" y="380.171" style="fill:#BE1E2D;" width="204.094" height="102.047"/>
	<rect x="616.28" y="161.103" style="fill:#BE1E2D;" width="102.047" height="204.094"/>
	<rect x="272.607" y="575.505" width="11.339" height="215.433"/>
	<rect x="1206.658" y="114.875" width="215.433" height="11.339"/>
</g>
</svg>
