<?xml version="1.0" encoding="utf-8"?>
<!-- Generator: Adobe Illustrator 18.0.0, SVG Export Plug-In . SVG Version: 6.00 Build 0)  -->
<!DOCTYPE svg PUBLIC "-//W3C//DTD SVG 1.1//EN" "http://www.w3.org/Graphics/SVG/1.1/DTD/svg11.dtd">
<svg version="1.1" id="Layer_1" xmlns="http://www.w3.org/2000/svg" xmlns:xlink="http://www.w3.org/1999/xlink" x="0px" y="0px"
	 viewBox="0 0 1440 900" enable-background="new 0 0 1440 900" xml:space="preserve">
<line fill="none" stroke="#000000" stroke-width="3" stroke-miterlimit="10" x1="227.5" y1="0" x2="227.5" y2="900"/>
<line fill="none" stroke="#000000" stroke-miterlimit="10" x1="484.5" y1="900" x2="483.5" y2="285.9"/>
<line fill="none" stroke="#000000" stroke-miterlimit="10" x1="692.5" y1="900" x2="692.5" y2="0"/>
<rect x="38.8" y="713.9" fill="none" stroke="#000000" stroke-miterlimit="10" width="60" height="60"/>
<rect x="38.8" y="420" fill="none" stroke="#000000" stroke-miterlimit="10" width="60" height="60"/>
<rect x="38.8" y="126" fill="none" stroke="#000000" stroke-miterlimit="10" width="60" height="60"/>
<line fill="none" stroke="#000000" stroke-miterlimit="10" x1="484" y1="290.5" x2="692" y2="290.5"/>
<line fill="none" stroke="#000000" stroke-miterlimit="10" x1="484" y1="308.5" x2="692" y2="308.5"/>
<line fill="none" stroke="#000000" stroke-miterlimit="10" x1="484" y1="326.5" x2="692" y2="326.5"/>
<line fill="none" stroke="#000000" stroke-miterlimit="10" x1="484" y1="344.5" x2="692" y2="344.5"/>
<line fill="none" stroke="#000000" stroke-miterlimit="10" x1="484" y1="362.5" x2="692" y2="362.5"/>
<line fill="none" stroke="#000000" stroke-miterlimit="10" x1="484" y1="380.5" x2="692" y2="380.5"/>
<line fill="none" stroke="#000000" stroke-miterlimit="10" x1="484" y1="398.5" x2="692" y2="398.5"/>
<line fill="none" stroke="#000000" stroke-miterlimit="10" x1="484" y1="416.5" x2="692" y2="416.5"/>
<line fill="none" stroke="#000000" stroke-miterlimit="10" x1="484" y1="434.5" x2="692" y2="434.5"/>
<line fill="none" stroke="#000000" stroke-miterlimit="10" x1="484" y1="452.5" x2="692" y2="452.5"/>
<line fill="none" stroke="#000000" stroke-miterlimit="10" x1="484" y1="470.5" x2="692" y2="470.5"/>
<line fill="none" stroke="#000000" stroke-miterlimit="10" x1="484" y1="488.5" x2="692" y2="488.5"/>
<line fill="none" stroke="#000000" stroke-miterlimit="10" x1="484" y1="695.5" x2="692" y2="695.5"/>
<line fill="none" stroke="#000000" stroke-miterlimit="10" x1="484" y1="713.5" x2="692" y2="713.5"/>
<line fill="none" stroke="#000000" stroke-miterlimit="10" x1="484" y1="731.5" x2="692" y2="731.5"/>
<line fill="none" stroke="#000000" stroke-miterlimit="10" x1="484" y1="749.5" x2="692" y2="749.5"/>
<line fill="none" stroke="#000000" stroke-miterlimit="10" x1="484" y1="767.5" x2="692" y2="767.5"/>
<line fill="none" stroke="#000000" stroke-miterlimit="10" x1="484" y1="785.5" x2="692" y2="785.5"/>
<line fill="none" stroke="#000000" stroke-miterlimit="10" x1="484" y1="803.5" x2="692" y2="803.5"/>
<line fill="none" stroke="#000000" stroke-miterlimit="10" x1="484" y1="821.5" x2="692" y2="821.5"/>
<line fill="none" stroke="#000000" stroke-miterlimit="10" x1="484" y1="839.5" x2="692" y2="839.5"/>
<line fill="none" stroke="#000000" stroke-miterlimit="10" x1="484" y1="857.5" x2="692" y2="857.5"/>
<line fill="none" stroke="#000000" stroke-miterlimit="10" x1="484" y1="875.5" x2="692" y2="875.5"/>
<line fill="none" stroke="#000000" stroke-miterlimit="10" x1="484" y1="893.5" x2="692" y2="893.5"/>
<path fill="none" stroke="#000000" stroke-miterlimit="10" d="M926.5,180v62c0,0,52.5-3.2,52.5-62.1"/>
<path fill="none" stroke="#000000" stroke-miterlimit="10" d="M1032.5,180v62c0,0-52.5-3.2-52.5-62.1"/>
<rect x="852" fill="none" stroke="#000000" stroke-miterlimit="10" width="298" height="179.9"/>
<rect x="428.8" y="290.5" stroke="#000000" stroke-miterlimit="10" width="54.7" height="609.5"/>
<rect x="852" y="416.5" fill="#FFFFFF" stroke="#000000" stroke-miterlimit="10" width="549" height="88.5"/>
<rect x="852" y="625" fill="#FFFFFF" stroke="#000000" stroke-miterlimit="10" width="549" height="88.5"/>
<rect x="852" y="833.5" fill="#FFFFFF" stroke="#000000" stroke-width="0.8537" stroke-miterlimit="10" width="549" height="64.5"/>
</svg>
